<?xml version="1.0" encoding="UTF-8"?>
<svg version="1.1" xmlns="http://www.w3.org/2000/svg" width="512" height="512">
<path d="M0 0 C4.95948314 3.67318169 8.10300553 7.31439006 9.57421875 13.359375 C10.66823812 20.93516501 9.32495156 26.8355969 4.79296875 33.00390625 C-2.76488682 41.73320187 -15.45307752 46.2321616 -26.65234375 47.23828125 C-31.63902642 47.38427042 -36.10453294 46.71483388 -40.89453125 45.33984375 C-43.63566731 44.89739693 -45.36163965 45.10543094 -48 46 C-69.23905513 65.93870482 -83.13271674 99.67585969 -84.31640625 128.30078125 C-84.77087509 146.44080182 -84.92851659 166.62101667 -72.29296875 180.93359375 C-63.12882915 189.9048041 -51.24028563 193.28485611 -38.75224304 193.34628296 C-29.97606721 193.19176402 -21.74241405 190.88447568 -13.3125 188.625 C2.22987365 184.55659694 16.81857326 181.60171009 33 181.625 C34.01096741 181.62631424 34.01096741 181.62631424 35.0423584 181.62765503 C73.71396016 181.79242611 108.33302472 198.43040336 135.56103516 225.52636719 C147.09683568 237.34009165 155.90962111 251.51033477 164.125 265.75 C171.68835022 278.81710507 180.3676322 290.27286306 191 301 C191.81082031 301.82371094 192.62164062 302.64742188 193.45703125 303.49609375 C207.9344024 317.34923331 226.0767769 324.88601333 246 326 C248.37322306 325.9036953 250.62859316 325.67302582 252.97265625 325.30859375 C256.64996984 324.74884852 260.30754001 324.45721603 264 325 C266.76095629 327.17529889 266.93373213 328.54559175 267.4375 332 C266.88916583 335.76000574 265.88071073 336.59375927 263 339 C228.04152009 354.58959239 181.16056262 347.78830367 146.67578125 334.875 C133.37911903 329.66852485 121.19155737 322.36321782 109 315 C108.94811523 315.70962891 108.89623047 316.41925781 108.84277344 317.15039062 C108.23518956 324.9752575 107.35736453 332.73058756 106.25 340.5 C106.105625 341.65242188 105.96125 342.80484375 105.8125 343.9921875 C105.65265625 345.09820312 105.4928125 346.20421875 105.328125 347.34375 C105.1930957 348.33568359 105.05806641 349.32761719 104.91894531 350.34960938 C103.67097925 353.94895038 102.28440365 355.09600593 99 357 C96.33096982 357.36698473 94.09060498 357.51680452 91.43359375 357.4609375 C90.7176857 357.46002106 90.00177765 357.45910461 89.26417542 357.4581604 C87.75718518 357.45214152 86.25020596 357.4364469 84.7434082 357.41162109 C82.44111927 357.37505748 80.14044 357.37060243 77.83789062 357.37109375 C76.36977781 357.36126329 74.90167584 357.34960658 73.43359375 357.3359375 C72.74808945 357.33371185 72.06258514 357.33148621 71.35630798 357.32919312 C64.87178968 357.20076273 64.87178968 357.20076273 62 355 C61.0300293 353.02587891 61.0300293 353.02587891 60.38671875 350.6015625 C60.14872559 349.70598633 59.91073242 348.81041016 59.66552734 347.88769531 C58.55637887 343.07514649 57.64747073 338.2418722 56.8125 333.375 C56.63525391 332.37082031 56.45800781 331.36664063 56.27539062 330.33203125 C55.84493422 327.8889003 55.41989735 325.44496378 55 323 C53.88625 323.144375 52.7725 323.28875 51.625 323.4375 C35.28664391 325.46355719 19.39558605 325.06267687 3 324 C2.84180786 325.18758911 2.84180786 325.18758911 2.68041992 326.39916992 C2.1944728 329.99697157 1.6911801 333.59213989 1.1875 337.1875 C1.02185547 338.43337891 0.85621094 339.67925781 0.68554688 340.96289062 C0.51474609 342.16494141 0.34394531 343.36699219 0.16796875 344.60546875 C0.01610107 345.71043701 -0.1357666 346.81540527 -0.29223633 347.95385742 C-1.04000984 351.17219829 -2.08021205 353.3246183 -4 356 C-6.7249103 357.36245515 -8.89633912 357.14224396 -11.94677734 357.16113281 C-13.19502289 357.17074036 -14.44326843 357.1803479 -15.7293396 357.19024658 C-17.09820371 357.19509436 -18.46706994 357.19937324 -19.8359375 357.203125 C-21.23597211 357.20887665 -22.6360067 357.21463438 -24.03604126 357.22039795 C-26.97324999 357.23090786 -29.91043136 357.23675053 -32.84765625 357.24023438 C-36.609449 357.24571819 -40.37087962 357.26974337 -44.13255882 357.29820633 C-47.02535047 357.31684019 -49.91805504 357.3220387 -52.81090164 357.32357025 C-54.19757695 357.32659581 -55.58425075 357.33462115 -56.97086716 357.34775543 C-58.91198304 357.36482899 -60.85324817 357.36108896 -62.79443359 357.35644531 C-63.89870697 357.36009094 -65.00298035 357.36373657 -66.14071655 357.36749268 C-69.41942211 356.94609329 -70.75565544 356.41774153 -73 354 C-73.78129578 351.52464294 -73.78129578 351.52464294 -74.16674805 348.59936523 C-74.38746475 346.98914993 -74.38746475 346.98914993 -74.61264038 345.34640503 C-74.80438339 343.68993454 -74.80438339 343.68993454 -75 342 C-75.1193692 340.98229523 -75.2387384 339.96459045 -75.36172485 338.91604614 C-75.70973352 335.74946691 -76.0235656 332.58081823 -76.33203125 329.41015625 C-76.57505028 327.05652455 -76.81922414 324.70301185 -77.06445312 322.34960938 C-77.44356368 318.68799832 -77.81599236 315.02626889 -78.16918945 311.36206055 C-78.51577789 307.79236593 -78.89016285 304.22649627 -79.26953125 300.66015625 C-79.36869339 299.56429703 -79.46785553 298.46843781 -79.57002258 297.33937073 C-80.25057207 291.13899174 -80.25057207 291.13899174 -83.46240234 285.88964844 C-84.71851318 284.95427246 -84.71851318 284.95427246 -86 284 C-87.15435547 283.06220703 -87.15435547 283.06220703 -88.33203125 282.10546875 C-89.55986328 281.15607422 -89.55986328 281.15607422 -90.8125 280.1875 C-103.29126502 270.03585602 -114.41329036 258.63588191 -123 245 C-123.36029297 244.43603516 -123.72058594 243.87207031 -124.09179688 243.29101562 C-135.04976876 225.91282152 -140.633142 206.06926815 -143.25 185.8125 C-143.33371857 185.16635742 -143.41743713 184.52021484 -143.50369263 183.85449219 C-149.09332253 139.49690608 -143.69944169 94.52506394 -122 55 C-121.65211426 54.36610352 -121.30422852 53.73220703 -120.94580078 53.07910156 C-110.89638882 35.04075204 -97.18693121 17.91416369 -81 5 C-80.01386719 4.18789062 -79.02773437 3.37578125 -78.01171875 2.5390625 C-53.62628393 -17.20135438 -25.65481023 -17.10067001 0 0 Z M-78 23 C-78.52464844 23.48678223 -79.04929688 23.97356445 -79.58984375 24.47509766 C-109.88606739 52.69851385 -128.70703577 94.06969418 -130.20483398 135.57714844 C-130.32764293 140.55165688 -130.33340218 145.52428349 -130.3125 150.5 C-130.31100952 151.3781839 -130.30951904 152.2563678 -130.3079834 153.16116333 C-130.26596535 166.95421475 -129.65529206 180.4288191 -127 194 C-126.85014648 194.78294434 -126.70029297 195.56588867 -126.54589844 196.37255859 C-120.03278282 229.31841412 -100.26536261 256.52145032 -72.765625 275.515625 C-62.96956117 283.04883834 -62.96956117 283.04883834 -52 287 C-52.10828125 285.69289063 -52.10828125 285.69289063 -52.21875 284.359375 C-52.68695309 278.35076871 -53.11341994 272.33651517 -53.3125 266.3125 C-53.36857422 264.88357422 -53.36857422 264.88357422 -53.42578125 263.42578125 C-53 261 -53 261 -51.17578125 259.15625 C-48.11444763 257.52940125 -46.27053978 258.07571702 -43 259 C-40.6720224 261.3279776 -40.6477085 262.08000112 -40.25830078 265.25537109 C-40.14549774 266.14398834 -40.0326947 267.03260559 -39.91647339 267.94815063 C-39.74512375 269.40854263 -39.74512375 269.40854263 -39.5703125 270.8984375 C-39.44439728 271.91690765 -39.31848206 272.93537781 -39.18875122 273.98471069 C-38.78074271 277.32185261 -38.38800102 280.66047511 -38 284 C-37.80513 285.67455261 -37.80513 285.67455261 -37.60632324 287.38293457 C-36.67261392 295.46104496 -35.77067818 303.54259744 -34.875 311.625 C-34.35402853 316.32579977 -33.83024447 321.02627343 -33.3046875 325.7265625 C-33.18801727 326.78791412 -33.07134705 327.84926575 -32.95114136 328.94277954 C-32.84077545 329.92926483 -32.73040955 330.91575012 -32.61669922 331.93212891 C-32.52137909 332.79319244 -32.42605896 333.65425598 -32.32785034 334.54141235 C-31.99406021 337.04454314 -31.49524973 339.52375137 -31 342 C-25.72 342 -20.44 342 -15 342 C-14.24649807 337.41722598 -13.49612498 332.83397742 -12.75 328.25 C-12.63739838 327.55948547 -12.52479675 326.86897095 -12.40878296 326.15753174 C-11.14828827 318.40916712 -9.9263423 310.65878737 -8.84765625 302.8828125 C-8.67202148 301.61791992 -8.49638672 300.35302734 -8.31542969 299.04980469 C-7.98595531 296.64240256 -7.66217345 294.23421292 -7.34472656 291.82519531 C-7.19616211 290.73561523 -7.04759766 289.64603516 -6.89453125 288.5234375 C-6.76925049 287.57388184 -6.64396973 286.62432617 -6.51489258 285.64599609 C-5.98212791 282.90815661 -5.11715253 280.54977715 -4 278 C2.15730337 276.69749352 2.15730337 276.69749352 5.4375 277.875 C9.10347592 282.86072725 6.82907738 290.5245598 6 296.25 C5.814375 297.41015625 5.62875 298.5703125 5.4375 299.765625 C5.05837587 302.56843551 4.9151551 305.17890698 5 308 C13.48369927 309.62145788 21.69345604 310.193307 30.3125 310.1875 C31.23047363 310.18814453 32.14844727 310.18878906 33.09423828 310.18945312 C42.82539673 310.42400874 42.82539673 310.42400874 52 308 C50.9385132 301.13460429 49.68886438 294.3233098 48.2734375 287.5234375 C48.11989807 286.78095764 47.96635864 286.03847778 47.8081665 285.27349854 C47.1714132 282.19738012 46.53359766 279.12160006 45.88085938 276.04882812 C41.73166578 256.46000578 41.73166578 256.46000578 43 251 C46.46923881 248.68717413 47.92205575 248.57521414 52 249 C55.22011153 251.34532159 55.67866381 253.89441549 56.4387207 257.6953125 C56.67939774 258.86924561 56.92007477 260.04317871 57.16804504 261.25268555 C57.41809799 262.53054932 57.66815094 263.80841309 57.92578125 265.125 C58.19751111 266.46872306 58.47033388 267.81222552 58.7441864 269.15551758 C59.46692532 272.71393707 60.17635362 276.27487794 60.88256836 279.83660889 C61.99470114 285.4327966 63.12770245 291.02482681 64.2578392 296.61740112 C64.53619978 297.9961423 64.81404555 299.3749875 65.09137344 300.75393677 C67.86590209 314.54745218 70.88526265 328.2790632 74 342 C79.61 342 85.22 342 91 342 C91.25168945 340.17307617 91.50337891 338.34615234 91.76269531 336.46386719 C92.59896224 330.42290849 93.4507451 324.38429722 94.31311417 318.34701157 C94.83531853 314.68710426 95.35128734 311.02654304 95.85302734 307.36376953 C96.33762334 303.82785782 96.83856898 300.29461403 97.35085297 296.76261139 C97.54326137 295.41586403 97.72980049 294.06826443 97.91031647 292.71987152 C98.1644886 290.82898433 98.44163843 288.9412291 98.71972656 287.05371094 C98.87072815 285.97893494 99.02172974 284.90415894 99.17730713 283.79681396 C100.15200983 280.48322973 101.25680591 279.07239114 104 277 C107.625 277 107.625 277 111 278 C112.27734375 279.578125 112.27734375 279.578125 113 282 C112.78610298 283.8822938 112.56429172 285.7651091 112.25756836 287.63452148 C111.22519673 294.40148601 111.22519673 294.40148601 113.8125 300.51171875 C116.75865728 302.67311092 119.74993675 304.32927007 123 306 C124.21491388 306.72165553 125.42442285 307.45247311 126.62890625 308.19140625 C149.63550927 322.08090543 177.79235956 332.44040449 205 331 C201.8867503 328.40562525 198.66400848 326.08202543 195.3125 323.8125 C189.78563951 319.96665791 184.88340583 315.62473425 180 311 C178.87271484 309.95199219 178.87271484 309.95199219 177.72265625 308.8828125 C164.30848894 296.01086988 155.17928057 280.06406611 145.74609375 264.21875 C127.10088112 233.18106271 98.45696877 208.8281276 63.00146484 199.47265625 C55.44695503 197.67811257 47.75809155 196.39266414 40 196 C39.01515625 195.94714844 38.0303125 195.89429688 37.015625 195.83984375 C18.80748504 195.34830946 1.33133522 199.67342927 -16.15966797 204.21875 C-17.16827126 204.480616 -17.16827126 204.480616 -18.19725037 204.74777222 C-20.03739532 205.22782502 -21.87605076 205.71357713 -23.71459961 206.19970703 C-40.31841892 210.24424294 -57.17236709 207.94884068 -72.18359375 199.8203125 C-85.72597338 191.06754009 -92.93892299 179.50532803 -96.45751953 163.98144531 C-103.92374386 128.33364715 -96.89028395 90.49352326 -77.20996094 59.84985352 C-58.23118827 31.32707411 -58.23118827 31.32707411 -49 28 C-45.43473688 28.24308612 -42.55505884 29.16999007 -39.3125 30.5625 C-31.20973546 33.67420805 -23.3869357 32.41731893 -15.5234375 29.1953125 C-10.47025535 26.8016999 -6.80947347 25.02368366 -4.625 19.5625 C-5.01823953 15.82672444 -5.12180135 15.34560046 -7.6875 12.9375 C-33.6135983 -6.44212859 -56.70332455 2.77427805 -78 23 Z M-65 298 C-63.35 312.52 -61.7 327.04 -60 342 C-55.38 342 -50.76 342 -46 342 C-46.21055088 337.49421114 -46.46436214 333.0264496 -46.81689453 328.53417969 C-46.9430041 326.78882332 -47.04685712 325.04176334 -47.13232422 323.29394531 C-47.24669168 312.70402909 -47.24669168 312.70402909 -51.38134766 303.38867188 C-55.23001559 300.38315474 -60.048395 298 -65 298 Z " fill="#000000" transform="translate(195,84)"/>
<path d="M0 0 C2.875 0.6875 2.875 0.6875 3.875 1.6875 C4.125 5.125 4.125 5.125 3.875 8.6875 C0.875 10.6875 0.875 10.6875 -2.25 10.375 C-5.125 9.6875 -5.125 9.6875 -6.125 8.6875 C-6.375 5.25 -6.375 5.25 -6.125 1.6875 C-3.125 -0.3125 -3.125 -0.3125 0 0 Z " fill="#000000" transform="translate(164.125,90.3125)"/>
</svg>
