<svg width="134" height="128" viewBox="0 0 134 128" fill="none" xmlns="http://www.w3.org/2000/svg">
<g filter="url(#filter0_d_1_7)">
<path d="M129.37 98.44C124.81 99.6 121.99 98.49 119.46 94.69C113.78 86.18 107.51 78.06 101.46 69.79C100.68 68.72 99.87 67.67 98.86 66.34C91.7 76 84.55 85.2 77.84 94.77C75.44 98.19 72.92 99.68 68.44 98.47L95.36 62.34L70.3 29.71C74.61 28.87 77.59 29.3 80.23 33.16C86.06 41.68 92.49 49.79 98.9 58.37C105.35 49.82 111.7 41.7 117.7 33.26C120.11 29.84 122.7 28.54 127.03 29.8C123.75 34.15 120.54 38.43 117.31 42.68C112.95 48.41 108.67 54.21 104.15 59.82C102.54 61.82 102.8 63.12 104.24 65.01C112.6 76 120.86 87.1 129.37 98.44ZM4.03 61.74C4.75 58.13 5.23 54.45 6.23 50.91C12.23 29.48 36.83 20.57 53.73 33.85C63.63 41.64 66.09 52.62 65.6 65H9.8C8.96 87.21 24.95 100.62 45.33 93.78C52.48 91.38 56.69 85.78 58.8 78.78C59.87 75.27 61.64 74.72 64.94 75.72C63.25 84.48 59.42 91.8 51.42 96.38C39.42 103.24 22.29 101.02 13.28 91.49C7.96 85.89 5.7 78.92 4.7 71.39C4.55 70.19 4.24 69.01 4 67.82C4.02 65.7933 4.03 63.7667 4.03 61.74ZM9.9 60.25H60.33C60 44.19 50 32.78 36.33 32.68C21.33 32.56 10.55 43.7 9.9 60.25Z" fill="white"/>
</g>
<defs>
<filter id="filter0_d_1_7" x="-1.3" y="0" width="136" height="136" filterUnits="userSpaceOnUse" color-interpolation-filters="sRGB">
<feFlood flood-opacity="0" result="BackgroundImageFix"/>
<feColorMatrix in="SourceAlpha" type="matrix" values="0 0 0 0 0 0 0 0 0 0 0 0 0 0 0 0 0 0 127 0" result="hardAlpha"/>
<feOffset dy="4"/>
<feGaussianBlur stdDeviation="2"/>
<feComposite in2="hardAlpha" operator="out"/>
<feColorMatrix type="matrix" values="0 0 0 0 0 0 0 0 0 0 0 0 0 0 0 0 0 0 0.25 0"/>
<feBlend mode="normal" in2="BackgroundImageFix" result="effect1_dropShadow_1_7"/>
<feBlend mode="normal" in="SourceGraphic" in2="effect1_dropShadow_1_7" result="shape"/>
</filter>
</defs>
</svg>
