<svg width="512" height="512" viewBox="0 0 512 512" fill="none" xmlns="http://www.w3.org/2000/svg">
<path d="M195 84C199.959 87.6732 203.103 91.3144 204.574 97.3594C205.668 104.935 204.325 110.836 199.793 117.004C192.235 125.733 179.547 130.232 168.348 131.238C163.361 131.384 158.895 130.715 154.105 129.34C151.364 128.897 149.638 129.105 147 130C125.761 149.939 111.867 183.676 110.684 212.301C110.229 230.441 110.071 250.621 122.707 264.934C131.871 273.905 143.76 277.285 156.248 277.346C165.024 277.192 173.258 274.884 181.688 272.625C197.23 268.557 211.819 265.602 228 265.625C229.011 265.626 229.011 265.626 230.042 265.628C268.714 265.792 303.333 282.43 330.561 309.526C342.097 321.34 350.91 335.51 359.125 349.75C366.688 362.817 375.368 374.273 386 385C386.811 385.824 387.622 386.647 388.457 387.496C402.934 401.349 421.077 408.886 441 410C443.373 409.904 445.629 409.673 447.973 409.309C451.65 408.749 455.308 408.457 459 409C461.761 411.175 461.934 412.546 462.438 416C461.889 419.76 460.881 420.594 458 423C423.042 438.59 376.161 431.788 341.676 418.875C328.379 413.669 316.192 406.363 304 399C303.948 399.71 303.896 400.419 303.843 401.15C303.235 408.975 302.357 416.731 301.25 424.5C301.106 425.652 300.961 426.805 300.813 427.992C300.653 429.098 300.493 430.204 300.328 431.344C300.193 432.336 300.058 433.328 299.919 434.35C298.671 437.949 297.284 439.096 294 441C291.331 441.367 289.091 441.517 286.434 441.461C285.718 441.46 285.002 441.459 284.264 441.458C282.757 441.452 281.25 441.436 279.743 441.412C277.441 441.375 275.14 441.371 272.838 441.371C271.37 441.361 269.902 441.35 268.434 441.336C267.748 441.334 267.063 441.331 266.356 441.329C259.872 441.201 259.872 441.201 257 439C256.03 437.026 256.03 437.026 255.387 434.602C255.149 433.706 254.911 432.81 254.666 431.888C253.556 427.075 252.647 422.242 251.813 417.375C251.635 416.371 251.458 415.367 251.275 414.332C250.845 411.889 250.42 409.445 250 407C248.886 407.144 247.773 407.289 246.625 407.437C230.287 409.464 214.396 409.063 198 408C197.842 409.188 197.842 409.188 197.68 410.399C197.194 413.997 196.691 417.592 196.188 421.187C196.022 422.433 195.856 423.679 195.686 424.963C195.515 426.165 195.344 427.367 195.168 428.605C195.016 429.71 194.864 430.815 194.708 431.954C193.96 435.172 192.92 437.325 191 440C188.275 441.362 186.104 441.142 183.053 441.161C181.805 441.171 180.557 441.18 179.271 441.19C177.902 441.195 176.533 441.199 175.164 441.203C173.764 441.209 172.364 441.215 170.964 441.22C168.027 441.231 165.09 441.237 162.152 441.24C158.391 441.246 154.629 441.27 150.867 441.298C147.975 441.317 145.082 441.322 142.189 441.324C140.802 441.327 139.416 441.335 138.029 441.348C136.088 441.365 134.147 441.361 132.206 441.356C131.101 441.36 129.997 441.364 128.859 441.367C125.581 440.946 124.244 440.418 122 438C121.219 435.525 121.219 435.525 120.833 432.599C120.613 430.989 120.613 430.989 120.387 429.346C120.196 427.69 120.196 427.69 120 426C119.881 424.982 119.761 423.965 119.638 422.916C119.29 419.749 118.976 416.581 118.668 413.41C118.425 411.057 118.181 408.703 117.936 406.35C117.556 402.688 117.184 399.026 116.831 395.362C116.484 391.792 116.11 388.226 115.73 384.66C115.631 383.564 115.532 382.468 115.43 381.339C114.749 375.139 114.749 375.139 111.538 369.89C110.281 368.954 110.281 368.954 109 368C107.846 367.062 107.846 367.062 106.668 366.105C105.44 365.156 105.44 365.156 104.188 364.187C91.7087 354.036 80.5867 342.636 72 329C71.6397 328.436 71.2794 327.872 70.9082 327.291C59.9502 309.913 54.3669 290.069 51.75 269.812C51.6663 269.166 51.5826 268.52 51.4963 267.854C45.9067 223.497 51.3006 178.525 73 139C73.3479 138.366 73.6958 137.732 74.0542 137.079C84.1036 119.041 97.8131 101.914 114 89C114.986 88.1879 115.972 87.3758 116.988 86.5391C141.374 66.7986 169.345 66.8993 195 84ZM117 107C116.475 107.487 115.951 107.974 115.41 108.475C85.1139 136.699 66.293 178.07 64.7952 219.577C64.6724 224.552 64.6666 229.524 64.6875 234.5C64.689 235.378 64.6905 236.256 64.692 237.161C64.734 250.954 65.3447 264.429 68 278C68.1499 278.783 68.2997 279.566 68.4541 280.373C74.9672 313.318 94.7346 340.521 122.234 359.516C132.03 367.049 132.03 367.049 143 371C142.892 369.693 142.892 369.693 142.781 368.359C142.313 362.351 141.887 356.336 141.688 350.312C141.631 348.884 141.631 348.884 141.574 347.426C142 345 142 345 143.824 343.156C146.886 341.529 148.729 342.076 152 343C154.328 345.328 154.352 346.08 154.742 349.255C154.855 350.144 154.967 351.033 155.084 351.948C155.255 353.409 155.255 353.409 155.43 354.898C155.556 355.917 155.682 356.935 155.811 357.985C156.219 361.322 156.612 364.66 157 368C157.195 369.675 157.195 369.675 157.394 371.383C158.327 379.461 159.229 387.543 160.125 395.625C160.646 400.326 161.17 405.026 161.695 409.727C161.812 410.788 161.929 411.849 162.049 412.943C162.159 413.929 162.27 414.916 162.383 415.932C162.479 416.793 162.574 417.654 162.672 418.541C163.006 421.045 163.505 423.524 164 426C169.28 426 174.56 426 180 426C180.754 421.417 181.504 416.834 182.25 412.25C182.363 411.559 182.475 410.869 182.591 410.158C183.852 402.409 185.074 394.659 186.152 386.883C186.328 385.618 186.504 384.353 186.685 383.05C187.014 380.642 187.338 378.234 187.655 375.825C187.804 374.736 187.952 373.646 188.105 372.523C188.231 371.574 188.356 370.624 188.485 369.646C189.018 366.908 189.883 364.55 191 362C197.157 360.697 197.157 360.697 200.438 361.875C204.103 366.861 201.829 374.525 201 380.25C200.814 381.41 200.629 382.57 200.438 383.766C200.058 386.568 199.915 389.179 200 392C208.484 393.621 216.693 394.193 225.313 394.187C226.23 394.188 227.148 394.189 228.094 394.189C237.825 394.424 237.825 394.424 247 392C245.939 385.135 244.689 378.323 243.273 371.523C243.12 370.781 242.966 370.038 242.808 369.273C242.171 366.197 241.534 363.122 240.881 360.049C236.732 340.46 236.732 340.46 238 335C241.469 332.687 242.922 332.575 247 333C250.22 335.345 250.679 337.894 251.439 341.695C251.679 342.869 251.92 344.043 252.168 345.253C252.418 346.531 252.668 347.808 252.926 349.125C253.198 350.469 253.47 351.812 253.744 353.156C254.467 356.714 255.176 360.275 255.883 363.837C256.995 369.433 258.128 375.025 259.258 380.617C259.536 381.996 259.814 383.375 260.091 384.754C262.866 398.547 265.885 412.279 269 426C274.61 426 280.22 426 286 426C286.252 424.173 286.503 422.346 286.763 420.464C287.599 414.423 288.451 408.384 289.313 402.347C289.835 398.687 290.351 395.027 290.853 391.364C291.338 387.828 291.839 384.295 292.351 380.763C292.543 379.416 292.73 378.068 292.91 376.72C293.164 374.829 293.442 372.941 293.72 371.054C293.871 369.979 294.022 368.904 294.177 367.797C295.152 364.483 296.257 363.072 299 361C302.625 361 302.625 361 306 362C307.277 363.578 307.277 363.578 308 366C307.786 367.882 307.564 369.765 307.258 371.635C306.225 378.401 306.225 378.401 308.812 384.512C311.759 386.673 314.75 388.329 318 390C319.215 390.722 320.424 391.452 321.629 392.191C344.636 406.081 372.792 416.44 400 415C396.887 412.406 393.664 410.082 390.312 407.812C384.786 403.967 379.883 399.625 375 395C373.873 393.952 373.873 393.952 372.723 392.883C359.308 380.011 350.179 364.064 340.746 348.219C322.101 317.181 293.457 292.828 258.001 283.473C250.447 281.678 242.758 280.393 235 280C234.015 279.947 233.03 279.894 232.016 279.84C213.808 279.348 196.331 283.673 178.84 288.219C177.832 288.481 177.832 288.481 176.803 288.748C174.963 289.228 173.124 289.714 171.285 290.2C154.682 294.244 137.828 291.949 122.816 283.82C109.274 275.068 102.061 263.505 98.5425 247.981C91.0763 212.334 98.1097 174.494 117.79 143.85C136.769 115.327 136.769 115.327 146 112C149.565 112.243 152.445 113.17 155.688 114.562C163.79 117.674 171.613 116.417 179.477 113.195C184.53 110.802 188.191 109.024 190.375 103.562C189.982 99.8267 189.878 99.3456 187.313 96.9375C161.386 77.5579 138.297 86.7743 117 107ZM130 382C131.65 396.52 133.3 411.04 135 426C139.62 426 144.24 426 149 426C148.789 421.494 148.536 417.026 148.183 412.534C148.057 410.789 147.953 409.042 147.868 407.294C147.753 396.704 147.753 396.704 143.619 387.389C139.77 384.383 134.952 382 130 382Z" fill="white"/>
<path d="M164.125 90.3125C167 91 167 91 168 92C168.25 95.4375 168.25 95.4375 168 99C165 101 165 101 161.875 100.687C159 100 159 100 158 99C157.75 95.5625 157.75 95.5625 158 92C161 90 161 90 164.125 90.3125Z" fill="white"/>
</svg>
